<svg width="512" height="512" viewBox="0 0 512 512" fill="none" xmlns="http://www.w3.org/2000/svg">
  <!-- Background -->
  <rect width="512" height="512" rx="128" fill="url(#gradient)"/>

  <!-- Phone Icon -->
  <path d="M371.2 349.867C366.933 345.6 356.267 340.267 348.8 337.6C341.333 334.933 318.4 324.8 311.467 322.133C304.533 319.467 299.2 318.4 293.867 325.867C288.533 333.333 278.4 345.6 273.6 350.933C268.8 356.267 264 357.333 256.533 353.067C249.067 348.8 226.133 341.333 198.4 316.267C176 295.467 160.533 270.4 155.733 262.933C150.933 255.467 155.2 251.2 159.467 246.933C163.2 243.2 167.733 236.8 172 232.533C176.267 228.267 177.867 225.6 180.533 220.267C183.2 214.933 181.6 209.6 179.467 205.333C177.333 201.067 160.533 175.467 154.133 160.533C147.733 145.6 141.333 148.267 136.533 148.267C131.733 148.267 126.4 147.733 121.067 147.733C115.733 147.733 107.2 150.4 100.267 157.867C93.333 165.333 73.067 184.533 73.067 210.133C73.067 235.733 92.267 260.267 96.533 265.6C100.8 270.933 160.533 358.4 249.6 387.2C338.667 416 338.667 404.8 355.467 403.2C372.267 401.6 393.067 388.267 397.867 375.467C402.667 362.667 402.667 351.467 400.533 348.267C398.4 345.067 393.067 342.4 385.6 338.133L371.2 349.867Z" fill="white"/>

  <!-- Gradient Definition -->
  <defs>
    <linearGradient id="gradient" x1="0" y1="0" x2="512" y2="512" gradientUnits="userSpaceOnUse">
      <stop offset="0%" stop-color="#6366f1"/>
      <stop offset="100%" stop-color="#8b5cf6"/>
    </linearGradient>
  </defs>
</svg>
